<svg id="visual" viewBox="0 0 900 600" width="900" height="600" xmlns="http://www.w3.org/2000/svg" xmlns:xlink="http://www.w3.org/1999/xlink" version="1.1"><path d="M0 49L180 79L360 37L540 43L720 61L900 91L900 0L720 0L540 0L360 0L180 0L0 0Z" fill="#6600ff"></path><path d="M0 289L180 235L360 223L540 235L720 223L900 349L900 89L720 59L540 41L360 35L180 77L0 47Z" fill="#575dff"></path><path d="M0 409L180 331L360 331L540 403L720 289L900 427L900 347L720 221L540 233L360 221L180 233L0 287Z" fill="#6a89ff"></path><path d="M0 523L180 517L360 505L540 511L720 505L900 523L900 425L720 287L540 401L360 329L180 329L0 407Z" fill="#92aef5"></path><path d="M0 601L180 601L360 601L540 601L720 601L900 601L900 521L720 503L540 509L360 503L180 515L0 521Z" fill="#c4cfe5"></path></svg>